<?xml version="1.0" encoding="utf-8"?>
<!-- Generator: Adobe Illustrator 23.0.6, SVG Export Plug-In . SVG Version: 6.00 Build 0)  -->
<svg version="1.1" id="Lager_1" xmlns="http://www.w3.org/2000/svg" xmlns:xlink="http://www.w3.org/1999/xlink" x="0px" y="0px"
	 viewBox="0 0 2000 2000" style="enable-background:new 0 0 2000 2000;" xml:space="preserve">
<g>
	<path d="M1771.5,1542.9c-23.7,157.3-71.7,265.9-144.1,325.7c-30.6,25-69.3,44.9-115.9,59.5c-46.6,14.6-97.8,21.9-153.5,21.9
		c-75.2,0-149.3-11.8-222.4-35.5c-73.1-23.7-163.2-59.2-270.4-106.5c-26.5-11.1-55.4-23.3-86.7-36.5
		c-31.3-13.2-66.5-27.5-105.4-42.8l-50.1-14.6c-26.5,13.9-55.3,24.7-86.6,32.4c-31.3,7.6-60.9,11.5-88.7,11.5
		c-29.3,0-52.9-4.5-71-13.6c-18.1-9.1-27.1-22.7-27.1-40.7c0-37.6,38.3-56.4,114.8-56.4c51.5,0,104.4,9.7,158.7,29.2
		c47.3-13.9,97.4-32.7,150.3-56.4c9.7-4.2,24.4-10.1,43.9-17.7c19.5-7.7,36.9-14.3,52.2-19.8c-129.4-12.5-242.5-50.4-339.3-113.8
		c-96.8-63.3-171.2-149.3-223.4-257.8c-52.2-108.6-78.3-235.2-78.3-380c0-153.1,31.3-288.8,93.9-407.1s150-210.2,262-275.6
		C696.6,82.7,824.3,50,967.6,50c147.5,0,276.6,29.9,387.3,89.8c110.7,59.9,196.6,146.5,257.8,260s91.9,248.8,91.9,406.1
		c0,147.6-29.3,279.4-87.7,395.7c-58.5,116.2-140.6,207.7-246.4,274.6c-105.8,66.8-226.2,103-361.2,108.6
		c-33.4,4.2-63.4,10.4-89.8,18.8c-26.5,8.3-57.8,20.2-93.9,35.5c-44.6,19.5-87.7,35.5-129.5,48l169.1,14.6
		c176.8,15.3,304.1,23,382.1,23c51.5,0,103.7-3.5,156.6-10.4c86.3-9.8,154.5-28.2,204.6-55.3c50.1-27.2,91.9-69.3,125.3-126.3
		L1771.5,1542.9z M628.3,1204.6c35.5,110,83.5,194.9,144.1,254.7s127.7,89.8,201.5,89.8c76.5,0,144.1-31,202.5-92.9
		c58.5-61.9,103.4-148.6,134.7-259.9c31.3-111.4,47-238.7,47-382.1c0-144.7-17.7-272.1-53.2-382.1s-83.5-194.9-144.1-254.7
		c-60.6-59.9-127.7-89.8-201.5-89.8c-76.6,0-144.1,31-202.5,92.9c-58.5,61.9-103.4,148.6-134.7,260c-31.3,111.4-47,238.7-47,382.1
		C575.1,967.3,592.8,1094.7,628.3,1204.6z"/>
</g>
</svg>
